<?xml version="1.0" encoding="UTF-8" standalone="no"?>
<!DOCTYPE svg>
<svg width="100%" height="100%" fill="white" viewBox="0 0 1129 514" version="1.1" xmlns="http://www.w3.org/2000/svg" xmlns:xlink="http://www.w3.org/1999/xlink" xml:space="preserve" xmlns:serif="http://www.serif.com/" style="fill-rule:evenodd;clip-rule:evenodd;stroke-linejoin:round;stroke-miterlimit:2;">
    <g transform="matrix(1,0,0,1,-338.586,-193.881)">
        <path d="M1467.58,193.881L1467.58,707.333L338.586,707.333L338.586,193.881L1467.58,193.881ZM1448.58,212.881L357.586,212.881C357.586,212.881 357.586,688.333 357.586,688.333L1448.58,688.333L1448.58,212.881ZM954.79,500.954L954.79,298.169L999.05,298.169L999.05,500.954L954.79,500.954ZM775.503,605.102L775.503,546.476L782.194,546.476L782.194,605.102L775.503,605.102ZM648.625,546.476L655.315,546.476L655.315,605.102L648.625,605.102L648.625,578.424L620.274,578.424L620.274,605.102L613.583,605.102L613.583,546.476L620.274,546.476L620.274,572.486L648.625,572.486L648.625,546.476ZM629.58,388.27L618.51,424.873L511.464,424.873L511.464,500.954L467.493,500.954L467.493,298.169L656.828,298.169L645.795,334.652L629.129,334.618L511.464,334.618L511.464,388.424L629.58,388.27ZM1225.38,599.917C1233.33,599.917 1237.6,595.568 1237.6,590.132C1237.6,576.835 1209.66,579.845 1209.66,561.363C1209.66,552.498 1217.27,545.64 1227.81,545.64C1234.42,545.64 1239.6,547.815 1242.95,550.574L1238.85,555.76C1235.92,553.418 1232.33,551.745 1227.39,551.745C1220.53,551.745 1216.44,555.592 1216.44,560.945C1216.44,574.493 1244.37,571.65 1244.37,589.714C1244.37,598.579 1237.34,605.939 1224.8,605.939C1215.93,605.939 1209.83,602.761 1206.48,599.75L1210.41,594.397C1213.68,597.074 1218.36,599.917 1225.38,599.917ZM1054.43,546.476L1061.12,546.476L1061.12,599.164L1086.3,599.164L1086.3,605.102L1054.43,605.102L1054.43,546.476ZM902.381,546.476L909.072,546.476L909.072,599.164L934.245,599.164L934.245,605.102L902.381,605.102L902.381,546.476ZM671.582,388.424C678.814,362.678 683.153,346.189 686.624,328.832L687.781,328.832C691.253,346.768 695.303,361.521 703.113,389.581L710.924,417.93L663.193,417.93L671.582,388.424ZM733.777,500.954L640.05,500.954L653.068,454.38L721.048,454.38L733.777,500.954ZM1047.51,353.421L1046.35,353.421C1048.37,373.671 1049.24,389.292 1049.24,424.295L1049.24,500.954L1007.01,500.954L1007.01,298.169L1059.95,298.169L1101.31,378.01C1111.44,397.392 1122.43,419.955 1129.95,440.205L1131.11,440.205C1128.79,411.856 1128.79,383.795 1128.79,362.389L1128.79,298.169L1170.74,298.169L1170.74,500.954L1118.96,500.954L1074.41,415.327C1064.29,395.656 1055.9,375.696 1047.51,353.421ZM1275.03,295.276C1314.95,295.276 1333.17,312.344 1338.67,318.708L1310.32,349.661C1302.8,341.561 1292.09,333.461 1273.29,333.461C1246.68,333.461 1224.11,348.214 1224.11,396.234C1224.11,446.28 1240.31,467.976 1274.16,467.976C1280.23,467.976 1289.2,466.819 1293.25,465.083L1293.25,396.524L1337.51,396.524L1337.51,485.911C1322.76,496.036 1302.51,503.846 1264.9,503.846C1207.34,503.846 1178.7,469.133 1178.7,401.442C1178.7,328.254 1221.22,295.276 1275.03,295.276ZM718.445,298.169L851.082,298.169C917.037,298.169 946.833,330.279 946.833,395.077C946.833,446.858 926.294,500.954 851.66,500.954L780.061,500.954L718.445,298.169ZM831.989,334.618L831.989,464.504L848.189,464.504C889.556,464.504 901.416,438.18 901.416,399.127C901.416,350.239 880.01,334.618 847.9,334.618L831.989,334.618Z"/>
    </g>
</svg>
